<svg width="1200" height="675" viewBox="0 0 1200 675" fill="none" xmlns="http://www.w3.org/2000/svg">
  <rect width="1200" height="675" rx="32" fill="#07111F"/>
  <circle cx="180" cy="140" r="110" fill="#2DD4BF" fill-opacity="0.15"/>
  <circle cx="1010" cy="170" r="150" fill="#8B5CF6" fill-opacity="0.18"/>
  <rect x="68" y="72" width="1064" height="531" rx="28" fill="#0D1A30" stroke="#334155"/>
  <rect x="108" y="118" width="470" height="128" rx="24" fill="#12233F"/>
  <rect x="604" y="118" width="488" height="128" rx="24" fill="#132741"/>
  <rect x="108" y="282" width="292" height="222" rx="24" fill="#11213B"/>
  <rect x="430" y="282" width="292" height="222" rx="24" fill="#11213B"/>
  <rect x="752" y="282" width="340" height="222" rx="24" fill="#11213B"/>
  <path d="M190 345L288 305L370 348L451 316L540 358L632 330L718 374" stroke="#2DD4BF" stroke-width="14" stroke-linecap="round" stroke-linejoin="round"/>
  <circle cx="288" cy="305" r="10" fill="#2DD4BF"/>
  <circle cx="451" cy="316" r="10" fill="#8B5CF6"/>
  <circle cx="632" cy="330" r="10" fill="#F59E0B"/>
  <text x="108" y="560" fill="#F8FAFC" font-size="58" font-family="Arial, sans-serif" font-weight="700">MoveMap</text>
  <text x="108" y="608" fill="#B6C7E3" font-size="28" font-family="Arial, sans-serif">Relocation planning with checklists, savings runway, and readiness scoring</text>
</svg>
